<?xml version="1.0" encoding="UTF-8" ?>
<!DOCTYPE svg PUBLIC "-//W3C//DTD SVG 1.1//EN" "http://www.w3.org/Graphics/SVG/1.1/DTD/svg11.dtd">
<svg width="570pt" height="570pt" viewBox="0 0 570 570" version="1.1" xmlns="http://www.w3.org/2000/svg">
<g id="#000000ff">
<path fill="#000000" opacity="1.00" d=" M 0.00 0.00 L 0.26 0.00 C 0.19 0.06 0.06 0.19 0.00 0.26 L 0.00 0.00 Z" />
<path fill="#000000" opacity="1.00" d=" M 162.98 59.14 C 165.23 54.65 167.73 49.18 173.06 47.80 C 178.30 46.84 184.52 47.57 188.26 51.75 C 191.96 56.00 193.57 61.56 195.33 66.81 C 197.51 73.95 201.03 80.56 203.70 87.51 C 205.88 93.35 210.42 98.45 210.42 104.95 C 210.50 109.57 210.41 114.22 209.75 118.81 C 209.17 123.84 205.13 127.38 201.88 130.88 C 198.25 134.82 193.55 137.94 190.98 142.74 C 188.38 151.71 191.35 162.32 199.08 167.87 C 202.51 170.03 206.73 170.05 210.61 170.73 C 221.12 172.72 231.81 174.37 241.82 178.33 C 246.88 180.30 251.79 182.65 256.70 184.97 C 262.22 187.46 267.29 190.92 271.42 195.37 C 264.89 202.54 259.37 210.63 252.10 217.12 C 247.84 221.66 241.42 223.83 235.28 222.70 C 231.01 222.07 228.21 218.47 225.25 215.69 C 219.91 210.17 212.42 207.75 205.95 203.90 C 199.93 200.36 193.71 197.10 187.01 195.01 C 180.68 192.92 174.51 190.00 169.57 185.44 C 161.97 178.68 154.76 170.50 152.58 160.28 C 150.92 150.82 154.02 140.54 149.23 131.69 C 144.90 123.51 138.57 114.93 140.94 105.11 C 143.65 96.98 148.24 89.63 151.46 81.71 C 154.51 73.79 159.54 66.87 162.98 59.14 Z" />
<path fill="#000000" opacity="1.00" d=" M 283.71 248.73 C 288.20 244.91 292.52 240.89 296.90 236.94 C 300.02 244.81 302.81 252.80 305.24 260.91 C 298.02 264.25 290.46 266.74 283.15 269.85 C 274.11 273.42 265.62 278.15 257.00 282.58 C 255.06 277.17 252.76 271.90 250.60 266.58 C 262.78 263.16 274.07 256.87 283.71 248.73 Z" />
<path fill="#000000" opacity="1.00" d=" M 284.01 324.08 C 292.76 318.39 302.65 314.83 312.28 310.96 C 314.52 320.52 312.59 330.32 312.95 340.00 C 312.62 354.04 314.35 368.13 312.03 382.09 C 310.98 390.69 309.73 399.27 308.60 407.86 C 307.29 415.41 305.26 422.82 304.53 430.46 C 303.61 437.49 301.07 444.15 298.96 450.88 C 293.77 467.49 285.27 483.47 272.43 495.43 C 267.97 499.66 264.09 504.63 258.73 507.81 C 245.42 515.82 229.36 518.50 214.01 517.18 C 202.37 515.84 193.30 507.56 185.54 499.46 C 177.22 491.21 170.71 481.13 166.61 470.15 C 160.75 458.02 158.83 444.59 155.23 431.74 C 153.47 422.17 150.05 412.96 145.55 404.36 C 142.29 398.59 138.11 392.36 131.25 390.71 C 124.72 388.85 118.03 393.49 115.50 399.38 C 112.90 405.68 112.41 412.57 111.12 419.21 C 109.86 425.60 110.62 432.16 109.62 438.59 C 108.16 448.53 106.63 458.56 103.17 468.05 C 101.86 471.64 99.25 474.50 96.54 477.11 C 96.01 474.01 95.91 470.83 96.52 467.74 C 98.65 457.94 98.37 447.85 99.58 437.93 C 99.48 427.58 100.73 417.30 100.69 406.96 C 101.24 397.90 103.57 388.54 109.27 381.29 C 114.24 374.92 122.23 371.69 130.05 370.66 C 137.59 369.85 144.35 374.49 149.45 379.55 C 154.07 384.31 159.37 388.62 162.57 394.55 C 165.74 400.34 167.91 406.59 170.39 412.68 C 177.37 429.46 182.43 447.26 192.57 462.53 C 196.11 468.22 202.00 471.77 207.23 475.72 C 212.09 479.46 218.73 479.88 224.48 478.27 C 229.77 476.58 233.77 472.45 237.56 468.59 C 248.97 455.97 254.72 439.57 259.08 423.42 C 261.77 413.38 263.29 403.08 264.94 392.84 C 266.44 383.63 266.27 374.28 266.11 364.99 C 265.97 356.50 267.23 347.95 270.01 339.91 C 272.40 333.03 278.23 328.14 284.01 324.08 Z" />
</g>
<g id="#0f8f61ff">
<path fill="#0f8f61" opacity="1.00" d=" M 265.41 68.38 C 273.41 66.80 281.78 65.13 289.87 67.11 C 296.59 68.82 303.51 70.63 309.15 74.87 C 317.04 80.02 325.05 85.72 329.89 94.02 C 332.84 100.75 333.67 108.52 331.71 115.65 C 330.23 121.12 328.96 126.88 325.53 131.53 C 319.21 139.80 311.49 146.90 303.16 153.11 C 297.41 156.78 291.15 159.64 285.65 163.72 C 279.81 168.04 272.98 170.81 267.33 175.38 C 263.61 178.38 260.01 181.53 256.70 184.97 C 251.79 182.65 246.88 180.30 241.82 178.33 C 231.81 174.37 221.12 172.72 210.61 170.73 C 227.70 160.65 245.49 151.78 262.41 141.40 C 272.10 136.55 281.90 131.85 291.14 126.14 C 296.08 123.10 299.59 118.18 301.98 112.97 C 304.95 105.86 302.17 97.42 296.59 92.41 C 290.98 86.54 282.62 84.72 274.91 83.58 C 266.86 84.01 258.58 85.41 251.50 89.49 C 246.03 92.47 240.25 95.34 236.13 100.17 C 230.47 106.40 228.30 114.80 223.64 121.66 C 222.46 123.70 219.94 124.11 217.88 124.72 C 215.23 111.43 222.99 99.02 231.87 89.88 C 236.54 85.57 240.88 80.86 245.92 76.96 C 251.85 73.02 258.34 69.69 265.41 68.38 Z" />
<path fill="#0f8f61" opacity="1.00" d=" M 352.96 138.22 C 362.30 136.51 371.65 133.57 381.25 134.82 C 389.15 136.12 397.32 136.95 404.63 140.47 C 410.83 143.17 416.19 147.37 421.28 151.75 C 426.05 155.98 428.36 162.09 431.52 167.47 C 434.87 173.87 439.35 179.91 440.71 187.15 C 442.31 194.67 442.47 202.38 443.05 210.01 C 443.43 219.59 441.16 229.06 437.80 237.97 C 432.63 250.92 422.87 261.46 412.09 270.04 C 403.57 277.84 392.64 282.12 381.91 285.87 C 375.18 289.45 368.17 292.38 360.99 294.92 C 351.80 299.67 341.42 301.05 331.88 304.90 C 325.49 307.38 318.72 308.64 312.28 310.96 C 302.65 314.83 292.76 318.39 284.01 324.08 C 278.23 328.14 272.40 333.03 270.01 339.91 C 267.23 347.95 265.97 356.50 266.11 364.99 C 266.27 374.28 266.44 383.63 264.94 392.84 C 263.29 403.08 261.77 413.38 259.08 423.42 C 251.80 418.53 242.83 416.68 236.08 410.95 C 231.22 406.81 226.83 402.18 222.34 397.66 C 216.74 392.20 213.71 384.86 209.80 378.22 C 205.73 371.20 205.53 362.87 204.94 355.00 C 204.33 346.29 207.05 337.83 209.92 329.73 C 213.12 321.81 217.72 314.53 222.65 307.58 C 226.75 302.39 232.03 298.29 237.09 294.08 C 243.23 289.45 250.30 286.29 257.00 282.58 C 265.62 278.15 274.11 273.42 283.15 269.85 C 290.46 266.74 298.02 264.25 305.24 260.91 C 316.54 255.22 328.68 251.49 340.31 246.54 C 349.95 243.53 358.94 238.80 367.45 233.43 C 374.53 228.73 380.51 221.88 382.70 213.53 C 384.97 206.17 384.13 197.78 379.49 191.49 C 376.26 186.30 369.69 184.91 363.99 185.01 C 354.45 184.77 344.96 188.46 338.03 195.02 C 327.19 205.53 318.23 217.90 306.69 227.71 C 303.34 230.69 300.20 233.90 296.90 236.94 C 292.52 240.89 288.20 244.91 283.71 248.73 C 274.07 256.87 262.78 263.16 250.60 266.58 C 237.48 271.06 223.42 267.58 210.85 263.00 C 200.18 258.47 191.88 249.46 186.88 239.13 C 179.21 225.63 180.18 208.64 187.01 195.01 C 193.71 197.10 199.93 200.36 205.95 203.90 C 212.42 207.75 219.91 210.17 225.25 215.69 C 228.21 218.47 231.01 222.07 235.28 222.70 C 241.42 223.83 247.84 221.66 252.10 217.12 C 259.37 210.63 264.89 202.54 271.42 195.37 C 282.30 183.63 293.10 171.72 305.33 161.35 C 309.36 157.46 314.41 154.97 319.28 152.33 C 325.65 148.98 331.63 144.70 338.61 142.66 C 343.42 141.27 348.04 139.23 352.96 138.22 Z" />
<path fill="#0f8f61" opacity="1.00" d=" M 312.03 382.09 C 316.71 384.30 321.58 386.15 326.63 387.34 C 342.79 391.11 358.16 397.64 374.23 401.74 C 383.40 403.47 392.20 406.62 401.32 408.57 C 408.34 410.04 414.80 413.28 421.67 415.26 C 436.65 419.76 451.13 427.56 461.24 439.73 C 465.61 444.75 469.43 450.21 473.75 455.27 C 475.95 458.11 478.66 460.80 479.61 464.37 C 480.45 469.87 479.53 475.49 477.89 480.76 C 474.68 491.05 470.76 501.41 463.95 509.91 C 460.09 514.99 456.39 520.80 450.32 523.44 C 447.86 524.66 445.22 523.30 443.49 521.51 C 438.28 516.49 435.15 509.45 434.66 502.26 C 434.18 494.47 431.75 486.88 432.02 479.03 C 431.92 473.11 432.94 467.20 432.53 461.28 C 431.79 454.53 426.62 449.20 420.76 446.28 C 414.38 442.39 406.76 442.13 399.65 440.54 C 388.16 438.91 376.56 438.28 365.02 437.13 C 358.80 436.17 352.47 436.56 346.26 435.65 C 339.30 434.70 332.27 434.26 325.40 432.80 C 318.53 431.32 311.45 431.60 304.53 430.46 C 305.26 422.82 307.29 415.41 308.60 407.86 C 309.73 399.27 310.98 390.69 312.03 382.09 Z" />
</g>
</svg>
