<?xml version="1.0" encoding="UTF-8" ?>
<!DOCTYPE svg PUBLIC "-//W3C//DTD SVG 1.1//EN" "http://www.w3.org/Graphics/SVG/1.1/DTD/svg11.dtd">
<svg width="1500pt" height="1000pt" viewBox="0 0 1500 1000" version="1.1" xmlns="http://www.w3.org/2000/svg">
<g id="#586a6345">
<path fill="#586a63" opacity="0.27" d=" M 537.90 106.06 C 540.55 101.18 543.28 96.02 548.18 93.04 C 554.03 91.87 560.07 92.86 566.00 92.48 C 570.98 92.07 576.46 93.20 579.97 96.99 C 582.10 99.93 584.03 103.03 585.93 106.13 C 588.57 110.42 589.52 115.48 592.13 119.78 C 593.66 122.18 593.45 125.13 594.18 127.79 C 597.96 138.17 602.88 148.05 606.88 158.33 C 606.75 158.89 606.51 160.01 606.38 160.57 C 601.72 151.41 597.80 141.86 593.94 132.34 C 590.43 120.50 586.30 108.39 578.11 98.90 C 575.14 95.41 570.66 93.28 566.06 93.42 C 561.39 93.46 556.68 93.07 552.06 93.78 C 541.11 100.41 536.75 113.17 530.99 123.92 C 523.50 136.24 517.17 149.26 511.69 162.60 C 506.84 172.93 501.02 182.92 497.96 193.99 C 496.66 200.65 497.31 207.77 500.18 213.96 C 504.02 222.50 508.48 230.74 512.96 238.95 C 515.32 243.60 517.52 248.60 517.47 253.92 C 517.49 261.94 517.40 269.97 517.44 277.99 C 517.00 293.34 524.74 307.95 535.42 318.57 C 539.63 322.70 543.71 326.96 547.92 331.08 C 551.76 334.76 556.48 337.31 560.82 340.33 C 566.09 344.04 572.29 345.98 578.15 348.54 C 576.58 353.16 574.74 357.67 572.91 362.19 C 572.56 359.97 572.19 357.57 573.48 355.56 C 574.78 353.38 575.86 349.52 572.90 348.23 C 568.44 345.74 563.07 345.20 558.95 342.02 C 553.63 337.99 547.40 335.13 542.85 330.15 C 538.35 325.27 532.98 321.14 529.53 315.37 C 523.19 308.18 519.27 299.13 516.69 289.99 C 516.08 281.35 516.66 272.66 516.45 264.00 C 516.19 259.23 517.43 254.16 515.31 249.67 C 510.24 236.56 502.76 224.55 497.18 211.68 C 495.77 206.60 496.69 201.24 496.43 196.04 C 496.02 191.64 498.36 187.80 499.84 183.85 C 503.06 174.02 509.31 165.52 512.65 155.75 C 514.33 150.74 517.12 146.22 519.36 141.46 C 522.69 135.15 525.36 128.46 529.55 122.65 C 533.26 117.58 534.07 111.05 537.90 106.06 Z" />
<path fill="#586a63" opacity="0.27" d=" M 717.94 126.38 C 722.03 126.13 725.79 124.01 729.94 124.28 C 738.64 124.43 747.35 124.27 756.06 124.34 C 759.52 124.17 762.26 126.52 765.36 127.65 C 776.96 129.40 787.42 135.41 796.90 142.07 C 802.12 145.08 806.57 149.16 811.55 152.52 C 818.44 158.71 825.42 165.55 828.44 174.55 C 829.54 177.67 831.73 180.50 831.66 183.94 C 831.80 188.63 831.56 193.31 831.63 198.00 C 831.57 203.47 832.32 209.16 830.28 214.40 C 828.90 218.05 827.81 221.80 827.16 225.66 C 824.40 234.22 818.14 240.88 813.05 248.09 C 808.24 253.25 803.00 258.02 798.14 263.14 C 795.87 265.58 793.40 267.86 790.53 269.59 C 786.45 272.11 783.73 276.41 779.21 278.28 C 773.07 280.85 767.84 285.05 761.93 288.06 C 750.40 295.69 738.95 303.57 726.48 309.61 C 723.40 311.36 721.33 314.36 718.41 316.33 C 712.23 320.14 707.37 325.68 702.62 331.09 C 707.86 334.22 713.39 336.97 718.07 340.97 C 720.04 342.67 721.70 344.78 724.00 346.10 C 725.26 345.38 726.37 344.43 727.42 343.42 C 742.66 327.99 758.10 312.77 773.37 297.37 C 777.11 292.64 782.78 290.19 786.89 285.88 C 790.10 282.48 794.73 281.10 798.51 278.48 C 804.40 274.48 811.43 272.48 817.12 268.14 C 830.56 258.91 846.70 255.49 861.74 249.80 C 865.44 248.27 869.56 248.56 873.34 247.29 C 875.82 246.45 878.44 246.39 881.03 246.25 C 888.02 245.05 894.77 241.84 902.00 242.29 C 908.09 242.59 914.43 241.42 920.26 243.73 C 926.74 244.46 932.88 247.01 939.49 246.59 C 942.34 249.60 947.08 247.58 950.06 250.40 L 948.82 250.67 C 943.11 250.16 937.70 248.05 932.01 247.46 C 922.60 246.52 913.53 242.81 903.97 243.43 C 897.12 243.39 890.78 246.38 884.03 247.07 C 877.43 247.74 870.85 248.87 864.47 250.67 C 849.95 256.24 834.40 259.58 821.22 268.19 C 815.20 272.47 808.14 274.90 802.00 278.96 C 798.12 281.45 793.79 283.24 790.26 286.24 C 784.41 291.41 777.89 295.83 772.67 301.69 C 763.77 310.45 755.07 319.42 746.14 328.14 C 739.10 335.54 731.97 342.86 724.38 349.70 C 721.29 347.86 718.46 345.63 716.05 342.95 C 711.88 338.32 706.33 335.30 700.89 332.43 C 702.29 331.76 702.25 329.61 701.05 328.79 C 704.67 324.86 708.37 320.96 712.56 317.63 C 717.64 313.67 722.32 309.08 728.26 306.40 C 736.43 301.65 744.77 297.11 752.38 291.48 C 757.09 288.07 762.28 285.42 767.18 282.30 C 771.89 279.25 777.42 277.51 781.59 273.64 C 786.38 269.38 791.94 266.04 796.37 261.37 C 801.12 256.44 806.18 251.83 810.77 246.75 C 817.25 238.73 824.12 230.44 826.49 220.15 C 827.70 214.41 830.63 209.01 830.58 203.04 C 830.59 198.69 830.55 194.34 830.59 189.99 C 830.86 183.30 827.67 177.17 824.70 171.39 C 817.31 158.64 804.79 150.19 792.87 142.10 C 784.88 136.37 776.01 131.69 766.38 129.49 C 761.21 128.33 756.48 125.23 751.03 125.41 C 741.99 125.65 732.84 124.73 723.93 126.72 C 718.15 127.15 712.81 129.39 707.26 130.82 L 706.01 130.32 C 709.57 128.06 713.75 126.81 717.94 126.38 Z" />
<path fill="#586a63" opacity="0.27" d=" M 695.53 133.49 C 699.09 132.38 702.62 130.08 706.49 131.10 C 701.56 133.24 696.41 134.93 691.77 137.69 C 687.19 140.43 682.00 142.29 678.19 146.16 C 670.59 153.57 663.19 161.18 655.63 168.63 C 650.50 173.95 644.75 178.93 641.47 185.69 C 637.89 191.22 634.99 197.15 633.25 203.53 C 630.64 210.28 631.43 217.61 631.65 224.67 C 637.82 225.33 641.77 219.87 644.14 214.97 C 648.21 206.56 652.28 198.13 657.31 190.23 C 663.31 178.02 675.95 171.49 687.55 165.63 C 693.35 162.00 699.63 159.16 706.30 157.51 C 717.43 155.40 728.84 153.13 740.18 155.09 C 748.51 157.46 756.81 160.37 764.24 164.89 C 773.00 170.50 779.94 180.27 779.51 191.01 C 779.36 195.96 779.97 201.03 778.85 205.90 C 774.63 215.78 767.80 224.81 758.42 230.30 C 747.24 237.60 734.92 242.86 723.10 248.98 C 712.15 253.98 702.53 261.36 691.76 266.69 C 684.08 271.40 676.09 275.57 668.40 280.26 C 661.07 283.74 653.89 287.50 647.03 291.84 C 638.19 295.96 630.60 302.75 621.02 305.18 C 614.38 305.94 607.56 305.63 601.04 304.14 C 597.36 302.31 594.28 299.49 591.56 296.46 C 587.83 292.26 586.49 286.66 584.41 281.59 C 582.10 276.01 582.44 269.86 582.66 263.96 C 582.89 259.21 584.63 254.45 588.04 251.05 C 595.20 243.89 602.42 236.77 609.56 229.59 C 613.46 225.69 615.72 220.55 617.65 215.47 C 619.41 211.21 618.48 206.47 618.71 202.00 C 618.51 196.51 619.51 190.78 617.58 185.50 C 614.46 177.11 608.38 170.03 606.61 161.11 C 609.45 163.39 610.06 167.19 612.08 170.07 C 613.62 172.30 615.02 174.64 615.87 177.23 C 617.02 180.84 619.83 183.96 619.67 187.93 C 619.70 196.64 619.71 205.36 619.66 214.07 C 619.75 218.77 616.34 222.40 614.63 226.54 C 612.24 232.15 607.18 235.80 603.11 240.11 C 597.85 245.51 592.33 250.66 587.19 256.17 C 582.88 260.69 583.52 267.31 583.67 273.05 C 583.63 275.36 584.69 277.45 585.60 279.51 C 587.88 284.17 588.51 289.80 592.61 293.39 C 597.00 297.44 600.74 303.16 607.10 304.10 C 611.30 304.49 615.64 304.70 619.81 303.91 C 625.61 301.71 631.15 298.76 636.30 295.29 C 640.20 292.71 644.69 291.18 648.50 288.46 C 653.80 284.79 659.80 282.37 665.49 279.42 C 669.00 277.66 672.12 275.24 675.66 273.52 C 678.50 272.14 681.40 270.82 683.97 268.96 C 688.89 265.30 694.91 263.54 699.77 259.77 C 705.67 256.72 710.92 252.57 717.00 249.84 C 726.35 245.22 735.63 240.46 745.01 235.90 C 748.97 234.04 752.22 231.00 756.16 229.10 C 758.98 227.77 761.34 225.71 763.42 223.42 C 766.55 219.92 770.60 217.14 772.74 212.84 C 774.29 209.73 776.33 206.89 777.97 203.83 C 778.72 199.94 778.21 195.93 778.37 191.99 C 778.84 184.29 774.35 177.18 768.99 172.01 C 761.98 164.07 751.57 160.59 741.82 157.33 C 735.89 154.97 729.29 155.39 723.09 155.99 C 717.90 158.21 712.09 157.07 706.87 159.07 C 702.83 160.57 698.44 161.33 694.87 163.88 C 690.27 166.91 685.09 168.83 680.32 171.54 C 672.60 176.10 666.15 182.52 660.40 189.30 C 657.28 195.41 653.01 200.87 650.26 207.18 C 647.75 212.06 645.49 217.06 642.84 221.87 C 640.75 226.41 634.83 226.09 630.71 225.30 C 629.86 218.43 630.33 211.40 630.61 204.49 C 634.03 199.39 633.95 192.68 637.67 187.69 C 640.90 183.45 642.35 178.02 646.34 174.35 C 655.61 165.28 664.73 156.06 673.88 146.87 C 676.22 144.63 678.23 141.75 681.45 140.71 C 686.49 138.99 690.50 135.23 695.53 133.49 Z" />
<path fill="#586a63" opacity="0.27" d=" M 949.56 250.94 C 951.17 250.88 952.92 250.58 954.42 251.44 C 962.09 255.38 970.01 258.98 977.01 264.08 C 979.92 266.49 982.46 269.38 985.81 271.23 C 990.14 273.60 992.00 278.43 994.70 282.30 C 997.57 287.71 1001.25 292.64 1003.96 298.13 C 1008.23 307.70 1015.04 316.04 1018.04 326.20 C 1019.06 330.17 1021.52 333.73 1021.63 337.93 C 1021.86 342.02 1023.97 345.79 1023.72 349.94 C 1023.66 365.31 1023.55 380.68 1023.71 396.06 C 1023.59 398.57 1024.05 401.59 1021.65 403.21 C 1022.35 399.18 1022.71 395.10 1022.67 391.01 C 1022.61 378.32 1022.64 365.64 1022.64 352.95 C 1022.69 347.91 1021.12 343.07 1020.01 338.21 C 1017.72 328.73 1014.06 319.53 1008.68 311.37 C 1004.99 305.84 1002.75 299.51 999.11 293.96 C 994.23 286.32 990.48 277.48 982.91 272.03 C 978.02 268.61 973.80 264.34 968.71 261.21 C 962.60 257.28 955.73 254.77 949.56 250.94 Z" />
<path fill="#586a63" opacity="0.27" d=" M 869.28 332.38 C 876.41 329.52 884.26 330.52 891.74 330.71 C 898.41 331.83 906.01 332.83 910.65 338.33 C 915.29 343.67 918.85 349.99 920.93 356.75 C 921.94 361.44 921.42 366.29 921.51 371.06 C 921.76 377.36 918.91 383.13 916.78 388.89 C 914.98 393.65 912.48 398.22 908.75 401.74 C 903.31 406.96 898.41 412.88 891.95 416.89 C 882.28 422.74 872.73 428.98 862.10 432.99 C 851.83 436.44 841.91 440.82 831.83 444.77 C 825.47 447.60 818.61 449.13 812.40 452.29 C 809.20 453.89 805.87 455.20 802.46 456.28 C 795.88 458.18 790.08 462.10 783.34 463.54 C 779.83 456.43 778.24 448.64 775.77 441.16 C 772.95 435.41 770.77 429.37 769.40 423.10 C 769.43 422.88 769.51 422.44 769.55 422.22 C 770.18 417.45 774.77 414.97 777.60 411.56 C 781.80 406.66 787.81 403.87 792.13 399.10 C 799.57 391.22 807.76 384.08 814.88 375.90 C 822.49 365.31 832.63 356.97 841.51 347.51 C 848.72 339.40 859.35 335.88 869.28 332.38 M 875.36 332.32 C 864.59 335.88 852.77 339.17 845.11 348.11 C 837.13 356.13 829.12 364.12 821.10 372.10 C 818.04 375.12 816.33 379.23 813.16 382.16 C 808.25 386.91 803.46 391.79 798.61 396.61 C 795.59 399.59 792.84 402.95 789.17 405.17 C 784.06 408.26 780.44 413.12 776.07 417.08 C 774.42 418.90 772.14 420.51 771.54 423.00 C 772.24 430.09 776.87 435.99 778.02 442.97 C 779.64 448.79 781.22 454.73 783.92 460.15 C 786.03 461.83 788.91 459.85 791.02 458.89 C 796.86 455.49 803.82 454.90 809.67 451.54 C 813.99 449.07 818.76 447.63 823.50 446.20 C 833.67 442.06 843.89 438.01 854.07 433.90 C 861.64 431.78 868.53 427.92 875.49 424.34 C 883.15 419.05 892.15 415.53 898.55 408.55 C 902.42 404.44 906.68 400.70 910.41 396.47 C 915.28 390.09 917.07 382.08 919.63 374.63 C 923.08 361.16 916.53 347.32 906.93 338.07 C 903.98 335.05 899.80 334.02 895.82 333.18 C 889.24 331.17 882.08 331.02 875.36 332.32 Z" />
<path fill="#586a63" opacity="0.27" d=" M 568.63 370.51 C 570.41 368.17 570.66 364.98 572.74 362.87 C 572.10 368.68 569.14 374.06 569.41 379.99 C 569.56 387.00 569.27 394.02 569.54 401.03 C 569.83 407.30 573.66 412.61 574.76 418.68 L 574.46 419.80 C 571.32 414.02 567.65 407.84 568.29 401.00 C 568.59 390.84 567.94 380.65 568.63 370.51 Z" />
<path fill="#586a63" opacity="0.27" d=" M 1015.23 420.16 C 1016.52 416.52 1017.00 412.51 1019.41 409.36 C 1019.67 411.89 1019.58 414.53 1017.83 416.55 C 1017.43 422.65 1013.50 427.56 1011.13 432.98 C 1007.73 440.62 1003.01 447.53 998.36 454.44 C 995.07 458.75 990.81 462.17 987.12 466.11 C 982.97 469.99 979.47 474.65 974.53 477.59 C 971.08 479.71 968.65 483.10 965.17 485.16 C 962.27 486.90 959.82 489.26 956.97 491.06 C 949.67 495.07 942.16 498.68 934.32 501.48 C 926.82 506.02 917.88 507.07 910.31 511.44 C 901.38 516.35 891.82 519.92 882.32 523.49 C 874.11 528.09 864.83 530.05 856.08 533.32 C 851.55 535.15 846.62 535.56 842.06 537.26 C 833.59 540.24 824.98 542.82 816.55 545.88 C 811.46 548.06 805.72 548.24 800.78 550.77 C 797.42 552.59 797.55 556.70 797.60 560.01 C 797.74 596.36 797.57 632.71 797.68 669.07 C 797.20 673.55 801.56 676.60 805.42 677.63 C 813.36 679.59 820.66 683.98 828.96 684.47 C 833.01 684.63 836.03 688.00 840.08 688.24 C 845.07 688.68 849.41 691.44 854.21 692.65 C 861.71 695.67 869.79 696.70 877.30 699.65 C 890.32 703.74 903.03 709.31 916.72 710.72 C 921.23 711.68 925.32 714.31 930.06 714.38 C 935.06 714.33 939.02 718.13 943.97 718.38 C 948.86 718.58 953.57 720.17 957.94 722.34 L 956.79 722.65 C 950.75 721.77 944.96 719.72 938.95 718.68 C 933.29 716.77 927.46 715.54 921.66 714.19 C 914.35 711.59 906.57 710.93 899.18 708.66 C 886.43 704.90 874.08 699.85 861.18 696.65 C 854.03 694.74 847.24 691.73 840.07 689.93 C 834.73 688.64 829.72 686.21 824.28 685.30 C 818.27 684.33 812.71 681.78 806.91 680.06 C 803.65 678.91 799.96 678.01 797.69 675.20 C 795.92 672.41 796.58 668.91 796.45 665.80 C 796.85 631.87 796.47 597.94 796.64 564.01 C 796.69 559.62 796.62 555.22 796.04 550.87 C 798.71 549.52 801.47 548.31 804.38 547.52 C 816.50 544.49 828.18 539.98 840.06 536.15 C 854.16 532.16 868.39 528.20 881.67 521.88 C 890.38 518.33 899.33 515.26 907.60 510.69 C 915.19 506.40 923.91 504.83 931.61 500.77 C 942.17 496.54 952.87 492.10 961.70 484.73 C 968.89 478.58 976.93 473.38 983.35 466.35 C 987.49 461.82 992.23 457.87 996.16 453.15 C 1003.71 442.90 1010.33 431.93 1015.23 420.16 Z" />
<path fill="#586a63" opacity="0.27" d=" M 575.02 419.48 C 579.15 427.56 584.10 435.22 589.39 442.58 C 594.41 448.53 600.02 454.04 606.02 459.01 C 621.18 469.10 639.19 473.59 656.96 476.38 C 661.63 476.75 666.32 476.52 671.01 476.57 C 677.19 476.70 683.11 474.68 689.10 473.47 C 693.28 482.47 696.87 491.76 700.11 501.14 C 694.63 506.07 687.42 508.17 681.42 512.29 C 672.60 517.22 664.40 523.18 656.69 529.69 C 649.65 536.68 642.13 543.32 636.61 551.65 C 630.78 558.83 626.83 567.22 622.31 575.23 C 617.58 584.85 614.66 595.22 611.37 605.40 C 610.03 609.45 609.15 613.68 609.33 617.98 C 609.53 624.52 608.67 631.20 610.48 637.59 C 612.10 643.07 610.53 648.97 612.52 654.37 C 614.39 659.60 616.42 664.84 619.38 669.57 C 624.13 676.64 627.36 684.61 632.50 691.44 C 637.37 699.99 645.34 705.98 651.88 713.14 C 656.50 718.27 662.41 721.92 667.52 726.50 C 673.51 731.87 681.43 734.03 688.40 737.77 C 693.68 740.60 699.74 742.39 703.85 747.01 C 697.01 773.25 687.28 799.29 671.20 821.35 C 664.08 829.13 656.74 837.17 647.12 841.89 C 643.31 843.60 639.04 843.57 634.96 843.81 C 629.39 843.90 623.52 844.08 618.36 841.64 C 613.29 839.26 608.56 836.20 604.13 832.79 C 599.37 829.00 593.89 825.92 590.35 820.82 C 577.61 802.72 569.08 782.12 561.33 761.50 C 560.19 758.78 559.35 755.95 558.58 753.12 C 562.28 756.11 562.96 761.19 564.63 765.40 C 566.27 771.93 570.24 777.52 572.15 783.96 C 574.30 789.29 577.06 794.37 579.70 799.47 C 584.06 805.80 587.13 812.98 592.15 818.86 C 595.87 822.86 599.70 826.83 604.39 829.70 C 612.24 835.50 620.52 843.18 631.00 842.33 C 634.89 842.17 638.90 842.74 642.70 841.67 C 652.95 837.30 660.07 828.45 667.91 820.91 C 672.40 816.55 675.16 810.83 678.82 805.82 C 689.29 788.41 695.77 769.05 701.86 749.77 C 702.79 747.27 700.03 745.77 698.19 744.89 C 691.19 741.64 684.44 737.84 677.39 734.70 C 671.86 732.68 666.65 729.69 662.39 725.62 C 658.74 721.84 653.71 719.74 650.35 715.64 C 644.51 709.15 637.17 703.90 632.81 696.18 C 630.31 691.84 626.79 688.15 624.54 683.66 C 621.15 676.31 615.89 669.95 613.01 662.35 C 612.40 659.84 612.13 657.25 611.20 654.83 C 609.23 649.89 611.43 644.38 609.58 639.41 C 607.99 635.46 608.25 631.15 608.31 626.99 C 608.57 621.15 607.79 615.25 608.72 609.47 C 611.82 596.74 616.19 584.33 621.34 572.30 C 623.06 569.10 625.33 566.20 626.74 562.82 C 629.55 556.66 633.92 551.43 637.98 546.07 C 641.29 540.80 646.27 536.96 650.47 532.47 C 656.20 526.07 663.50 521.43 670.37 516.39 C 677.27 512.65 683.58 507.88 690.82 504.76 C 693.15 503.54 695.79 502.68 697.62 500.71 C 697.25 495.24 693.95 490.63 692.40 485.50 C 691.23 481.78 689.67 477.68 685.89 475.91 C 682.91 476.26 680.15 477.86 677.08 477.70 C 669.06 477.60 661.03 477.87 653.02 477.57 C 645.55 475.75 637.88 474.89 630.55 472.51 C 626.11 470.37 621.17 469.57 616.79 467.30 C 613.25 465.48 609.67 463.73 606.12 461.93 C 601.76 459.82 598.79 455.90 595.39 452.61 C 592.25 449.39 588.62 446.53 586.41 442.55 C 582.90 436.42 578.58 430.78 575.43 424.43 C 574.44 422.94 574.92 421.13 575.02 419.48 Z" />
<path fill="#586a63" opacity="0.27" d=" M 457.47 660.36 C 463.84 657.11 470.67 653.82 478.03 654.43 C 483.53 654.80 489.57 653.33 494.57 656.34 C 499.02 658.83 504.10 660.50 507.65 664.34 C 515.20 672.12 522.97 679.69 530.60 687.38 C 534.36 692.21 538.22 697.24 539.89 703.24 C 540.82 706.11 542.30 708.75 543.61 711.47 C 549.05 724.29 553.30 737.57 558.87 750.34 C 558.75 750.90 558.50 752.03 558.38 752.59 C 551.83 739.57 547.88 725.42 541.80 712.18 C 538.34 703.79 535.00 695.06 528.59 688.41 C 521.68 681.32 514.54 674.45 507.64 667.36 C 502.59 661.84 495.52 658.86 488.70 656.18 C 475.85 653.11 462.98 658.79 452.11 665.22 C 444.53 671.02 438.55 678.94 434.66 687.64 C 432.21 694.55 429.17 701.56 429.45 709.05 C 429.64 714.13 427.50 718.92 427.60 723.99 C 427.41 738.34 427.40 752.69 427.50 767.05 C 427.55 769.62 427.15 772.18 426.45 774.66 C 424.54 780.97 425.76 787.61 425.49 794.08 C 425.56 798.15 423.70 801.93 423.53 805.98 C 423.38 808.86 423.16 811.77 422.48 814.59 C 420.83 821.13 421.38 827.94 421.73 834.60 C 425.56 831.87 429.38 828.67 431.28 824.24 C 434.51 816.21 435.80 807.59 437.57 799.18 C 439.67 793.74 440.45 787.99 440.93 782.22 C 442.53 775.87 442.45 769.30 443.67 762.89 C 444.91 751.94 443.27 740.69 446.22 729.95 C 446.72 722.59 449.77 715.78 451.16 708.59 C 453.19 702.63 455.30 695.46 461.64 692.77 C 468.55 688.68 477.23 686.93 484.84 690.16 C 489.56 692.39 494.37 695.11 497.39 699.53 C 505.80 709.72 509.96 722.47 515.82 734.14 C 517.31 737.04 517.45 740.37 518.61 743.40 C 524.25 754.99 523.42 768.50 528.42 780.31 C 529.75 784.73 530.24 789.37 531.91 793.71 C 534.71 801.48 535.14 809.91 538.35 817.55 C 543.23 828.56 547.21 840.08 553.84 850.22 C 556.63 854.92 560.22 859.06 563.18 863.64 C 567.63 871.02 574.57 876.37 580.39 882.61 C 586.94 888.74 592.57 896.25 600.88 900.16 C 605.03 902.27 608.77 905.20 613.21 906.74 C 618.60 908.63 624.21 910.19 629.97 910.18 C 639.33 910.19 648.81 910.72 658.04 908.79 C 671.16 906.76 684.03 902.90 695.84 896.83 C 702.31 892.77 709.25 889.17 714.56 883.56 C 720.34 877.67 726.16 871.83 732.04 866.04 C 737.64 860.73 740.96 853.61 745.94 847.78 C 751.08 842.04 754.32 834.99 758.47 828.57 C 769.67 806.57 776.68 782.69 781.91 758.65 C 790.21 759.91 798.60 760.68 806.83 762.43 C 815.27 763.73 823.79 764.48 832.19 766.13 C 828.38 766.31 824.56 766.10 820.86 765.17 C 816.28 763.90 811.46 765.27 806.88 764.04 C 802.96 763.05 799.07 761.81 795.02 761.63 C 791.67 761.47 788.32 761.26 785.10 760.29 C 783.87 761.73 781.98 762.97 781.84 765.02 C 780.98 774.82 777.42 784.10 774.39 793.39 C 769.05 809.70 763.32 826.18 753.72 840.54 C 750.20 847.69 744.59 853.45 740.05 859.94 C 736.40 865.85 730.79 870.08 726.12 875.11 C 721.57 879.56 717.18 884.18 712.62 888.60 C 704.71 895.02 695.50 899.72 685.90 903.04 C 678.09 906.72 669.70 909.09 661.14 910.06 C 651.67 912.84 641.70 911.02 632.00 911.57 C 623.24 912.31 614.83 909.32 606.80 906.25 C 602.19 903.49 597.62 900.65 592.96 897.99 C 584.19 889.80 576.03 880.95 567.34 872.66 C 564.13 869.77 562.22 865.82 559.37 862.64 C 557.03 860.09 555.68 856.87 553.92 853.94 C 548.01 845.27 543.82 835.58 540.03 825.86 C 534.09 815.62 533.63 803.48 529.35 792.63 C 528.33 789.92 528.51 786.97 527.94 784.18 C 527.11 781.00 524.41 778.49 524.47 775.06 C 524.42 771.27 522.61 767.82 522.39 764.06 C 522.15 760.31 520.58 756.84 520.07 753.14 C 519.54 749.53 516.94 746.63 516.60 742.98 C 516.15 739.11 513.84 735.88 512.64 732.26 C 510.43 725.57 506.63 719.58 503.77 713.18 C 502.07 709.13 498.68 706.20 496.41 702.52 C 494.90 700.14 493.09 697.91 490.70 696.38 C 485.68 693.09 480.49 688.47 473.98 689.71 C 466.77 691.35 460.11 695.66 455.96 701.83 C 453.06 706.87 452.18 712.69 450.97 718.28 C 449.18 722.33 447.36 726.50 447.63 731.05 C 447.85 734.85 445.53 738.18 445.62 741.95 C 445.65 748.99 445.73 756.03 445.69 763.08 C 445.78 766.17 444.38 769.00 443.81 771.99 C 443.42 775.57 444.11 779.32 442.71 782.76 C 440.62 787.45 442.71 792.85 440.48 797.51 C 438.88 801.09 437.77 804.87 437.46 808.80 C 436.29 815.07 434.62 821.29 432.24 827.22 C 430.72 831.07 427.46 833.75 424.67 836.67 C 423.25 836.30 421.84 835.92 420.44 835.56 C 420.71 827.87 419.71 820.08 420.78 812.47 C 423.16 808.21 421.72 803.30 422.93 798.80 C 426.17 790.65 423.19 781.73 424.69 773.31 C 425.36 770.90 426.59 768.60 426.45 766.04 C 426.39 752.03 426.33 738.02 426.30 724.01 C 426.33 720.41 425.92 716.67 427.32 713.26 C 429.75 707.95 426.92 701.80 429.45 696.53 C 431.78 691.37 432.78 685.68 435.68 680.77 C 438.01 676.82 440.51 672.93 443.36 669.34 C 446.98 664.88 452.54 662.94 457.47 660.36 Z" />
<path fill="#586a63" opacity="0.27" d=" M 957.63 722.85 C 962.10 721.67 966.27 724.04 969.78 726.53 L 968.66 726.84 C 964.81 726.02 961.24 724.35 957.63 722.85 Z" />
<path fill="#586a63" opacity="0.27" d=" M 969.44 727.13 C 971.09 726.82 972.86 726.69 974.46 727.40 C 984.56 731.14 994.96 734.03 1005.02 737.87 C 1016.69 743.99 1029.27 748.81 1039.36 757.53 C 1044.73 760.73 1048.66 765.62 1053.16 769.85 C 1055.27 771.83 1056.81 774.29 1058.42 776.68 C 1060.79 780.20 1064.54 782.54 1066.75 786.20 C 1069.28 790.60 1073.51 793.66 1076.01 798.09 C 1079.93 803.05 1084.69 807.57 1087.37 813.38 C 1088.06 819.22 1087.41 825.13 1087.63 831.00 C 1087.52 835.84 1088.36 840.93 1086.50 845.55 C 1079.98 864.38 1073.43 883.84 1060.46 899.36 C 1054.37 907.08 1049.43 916.44 1040.41 921.16 C 1035.82 922.11 1031.10 921.55 1026.46 921.46 C 1019.97 915.35 1014.20 908.01 1011.57 899.39 C 1010.96 897.82 1010.93 896.13 1011.10 894.51 C 1011.98 896.06 1012.79 897.66 1013.50 899.32 C 1016.36 906.53 1021.14 912.94 1026.81 918.20 C 1030.41 921.85 1036.34 921.00 1040.29 918.36 C 1045.66 914.76 1049.97 909.82 1053.69 904.59 C 1058.26 898.19 1063.41 892.19 1067.56 885.48 C 1073.75 874.96 1078.23 863.55 1082.25 852.06 C 1083.96 846.81 1086.93 841.77 1086.68 836.07 C 1086.61 830.35 1086.74 824.63 1086.65 818.92 C 1086.67 815.10 1084.00 812.07 1081.87 809.17 C 1075.93 802.07 1070.18 794.82 1064.47 787.54 C 1061.29 784.03 1058.08 780.53 1055.44 776.58 C 1047.09 766.18 1036.50 757.87 1025.44 750.53 C 1019.51 746.90 1013.09 744.17 1006.95 740.93 C 994.97 734.98 981.59 732.64 969.44 727.13 Z" />
<path fill="#586a63" opacity="0.27" d=" M 618.13 746.34 C 619.00 745.59 619.87 744.85 620.79 744.17 C 620.38 746.24 619.96 748.32 619.36 750.36 C 619.23 749.94 618.98 749.10 618.85 748.68 C 618.60 747.89 618.36 747.11 618.13 746.34 Z" />
<path fill="#586a63" opacity="0.27" d=" M 870.79 770.41 C 879.88 770.77 889.02 769.97 898.05 771.31 C 903.74 771.92 909.43 772.71 915.17 772.78 C 923.56 772.61 931.69 775.09 940.08 775.15 C 948.43 777.01 957.27 776.17 965.27 779.62 C 962.56 779.85 959.88 779.50 957.30 778.72 C 952.13 777.15 946.58 778.36 941.42 776.74 C 937.68 775.61 933.75 776.02 929.92 775.72 C 926.57 775.45 923.46 773.77 920.06 773.97 C 915.01 774.14 909.97 773.87 904.99 773.05 C 901.29 772.37 897.43 772.90 893.85 771.65 C 886.29 769.68 878.33 772.29 870.79 770.41 Z" />
<path fill="#586a63" opacity="0.27" d=" M 965.99 779.81 C 976.36 781.22 987.19 784.61 994.47 792.53 C 997.79 795.90 1001.57 799.07 1003.52 803.50 C 1005.08 806.75 1005.57 810.40 1005.58 813.99 C 1005.63 823.66 1005.28 833.33 1005.36 843.00 C 1005.44 848.99 1004.87 855.08 1006.23 860.98 C 1007.09 865.69 1008.40 870.31 1009.09 875.06 C 1009.74 881.03 1008.94 887.12 1010.34 893.02 C 1008.12 891.82 1008.39 889.20 1008.31 887.07 C 1008.10 882.55 1009.00 877.89 1007.54 873.51 C 1006.34 869.77 1006.29 865.77 1005.09 862.04 C 1003.98 858.46 1004.31 854.68 1004.31 851.00 C 1004.38 838.99 1004.26 826.98 1004.36 814.97 C 1004.12 809.68 1002.97 803.84 998.91 800.08 C 995.54 796.79 992.27 793.39 988.89 790.11 C 985.11 786.35 979.68 785.35 974.92 783.39 C 971.96 782.13 968.25 782.36 965.99 779.81 Z" />
</g>
<g id="#000000ff">
<path fill="#000000" opacity="1.00" d=" M 530.99 123.92 C 536.75 113.17 541.11 100.41 552.06 93.78 C 556.68 93.07 561.39 93.46 566.06 93.42 C 570.66 93.28 575.14 95.41 578.11 98.90 C 586.30 108.39 590.43 120.50 593.94 132.34 C 597.80 141.86 601.72 151.41 606.38 160.57 L 606.61 161.11 C 608.38 170.03 614.46 177.11 617.58 185.50 C 619.28 195.38 618.29 205.52 617.65 215.47 C 615.72 220.55 613.46 225.69 609.56 229.59 C 602.42 236.77 595.20 243.89 588.04 251.05 C 584.63 254.45 582.89 259.21 582.66 263.96 C 582.44 269.86 582.10 276.01 584.41 281.59 C 586.49 286.66 587.83 292.26 591.56 296.46 C 594.28 299.49 597.36 302.31 601.04 304.14 C 604.18 305.43 607.61 305.65 610.96 305.90 C 618.56 306.37 625.98 308.17 633.44 309.57 C 646.08 312.04 658.77 314.63 670.87 319.14 C 680.86 322.95 690.52 327.56 700.21 332.09 L 700.89 332.43 C 706.33 335.30 711.88 338.32 716.05 342.95 C 718.46 345.63 721.29 347.86 724.38 349.70 C 711.96 363.14 701.55 378.56 687.35 390.31 C 679.91 396.23 669.80 398.40 660.54 396.43 C 653.70 394.44 649.15 388.57 644.06 383.99 C 635.82 375.89 624.84 371.74 614.96 366.11 C 603.08 359.49 591.16 352.73 578.15 348.54 C 572.29 345.98 566.09 344.04 560.82 340.33 C 556.48 337.31 551.76 334.76 547.92 331.08 C 543.71 326.96 539.63 322.70 535.42 318.57 C 524.74 307.95 517.00 293.34 517.44 277.99 C 517.40 269.97 517.49 261.94 517.47 253.92 C 517.52 248.60 515.32 243.60 512.96 238.95 C 508.48 230.74 504.02 222.50 500.18 213.96 C 497.31 207.77 496.66 200.65 497.96 193.99 C 501.02 182.92 506.84 172.93 511.69 162.60 C 517.17 149.26 523.50 136.24 530.99 123.92 Z" />
<path fill="#000000" opacity="1.00" d=" M 742.08 446.12 C 751.76 439.13 759.64 429.97 769.40 423.10 C 770.77 429.37 772.95 435.41 775.77 441.16 C 778.24 448.64 779.83 456.43 783.34 463.54 C 766.05 471.05 748.11 477.04 731.04 485.09 C 720.68 490.32 710.09 495.20 700.11 501.14 C 696.87 491.76 693.28 482.47 689.10 473.47 C 708.53 468.50 726.42 458.51 742.08 446.12 Z" />
<path fill="#000000" opacity="1.00" d=" M 747.70 573.69 C 762.69 563.85 779.80 558.18 796.04 550.87 C 796.62 555.22 796.69 559.62 796.64 564.01 C 796.47 597.94 796.85 631.87 796.45 665.80 C 794.48 681.91 792.28 698.00 790.12 714.09 C 788.77 724.88 785.96 735.42 784.14 746.14 C 783.38 750.30 782.97 754.54 781.91 758.65 C 776.68 782.69 769.67 806.57 758.47 828.57 C 754.32 834.99 751.08 842.04 745.94 847.78 C 740.96 853.61 737.64 860.73 732.04 866.04 C 726.16 871.83 720.34 877.67 714.56 883.56 C 709.25 889.17 702.31 892.77 695.84 896.83 C 684.03 902.90 671.16 906.76 658.04 908.79 C 648.81 910.72 639.33 910.19 629.97 910.18 C 624.21 910.19 618.60 908.63 613.21 906.74 C 608.77 905.20 605.03 902.27 600.88 900.16 C 592.57 896.25 586.94 888.74 580.39 882.61 C 574.57 876.37 567.63 871.02 563.18 863.64 C 560.22 859.06 556.63 854.92 553.84 850.22 C 547.21 840.08 543.23 828.56 538.35 817.55 C 535.14 809.91 534.71 801.48 531.91 793.71 C 530.24 789.37 529.75 784.73 528.42 780.31 C 523.42 768.50 524.25 754.99 518.61 743.40 C 517.45 740.37 517.31 737.04 515.82 734.14 C 509.96 722.47 505.80 709.72 497.39 699.53 C 494.37 695.11 489.56 692.39 484.84 690.16 C 477.23 686.93 468.55 688.68 461.64 692.77 C 455.30 695.46 453.19 702.63 451.16 708.59 C 449.77 715.78 446.72 722.59 446.22 729.95 C 443.27 740.69 444.91 751.94 443.67 762.89 C 442.45 769.30 442.53 775.87 440.93 782.22 C 440.45 787.99 439.67 793.74 437.57 799.18 C 435.80 807.59 434.51 816.21 431.28 824.24 C 429.38 828.67 425.56 831.87 421.73 834.60 C 421.38 827.94 420.83 821.13 422.48 814.59 C 423.16 811.77 423.38 808.86 423.53 805.98 C 423.70 801.93 425.56 798.15 425.49 794.08 C 425.76 787.61 424.54 780.97 426.45 774.66 C 427.15 772.18 427.55 769.62 427.50 767.05 C 427.40 752.69 427.41 738.34 427.60 723.99 C 427.50 718.92 429.64 714.13 429.45 709.05 C 429.17 701.56 432.21 694.55 434.66 687.64 C 438.55 678.94 444.53 671.02 452.11 665.22 C 462.98 658.79 475.85 653.11 488.70 656.18 C 495.52 658.86 502.59 661.84 507.64 667.36 C 514.54 674.45 521.68 681.32 528.59 688.41 C 535.00 695.06 538.34 703.79 541.80 712.18 C 547.88 725.42 551.83 739.57 558.38 752.59 L 558.58 753.12 C 559.35 755.95 560.19 758.78 561.33 761.50 C 569.08 782.12 577.61 802.72 590.35 820.82 C 593.89 825.92 599.37 829.00 604.13 832.79 C 608.56 836.20 613.29 839.26 618.36 841.64 C 623.52 844.08 629.39 843.90 634.96 843.81 C 639.04 843.57 643.31 843.60 647.12 841.89 C 656.74 837.17 664.08 829.13 671.20 821.35 C 687.28 799.29 697.01 773.25 703.85 747.01 C 708.69 726.22 712.49 705.18 715.12 684.00 C 716.62 671.72 715.88 659.33 716.03 647.00 C 715.58 631.66 717.92 616.26 722.77 601.72 C 726.95 589.47 737.30 580.71 747.70 573.69 Z" />
<path fill="#000000" opacity="1.00" d=" M 583.95 646.96 C 588.47 642.62 596.52 642.47 600.95 647.03 C 605.11 651.77 606.75 658.10 607.45 664.23 C 602.47 666.17 597.52 668.17 592.54 670.10 C 591.86 667.35 589.49 663.70 586.17 664.96 C 583.40 666.90 581.49 669.77 578.92 671.94 C 575.25 675.05 569.10 674.81 565.92 671.08 C 562.78 668.31 562.15 663.98 561.19 660.13 C 563.09 658.98 565.01 657.83 566.90 656.64 C 567.60 658.64 567.97 660.94 569.50 662.54 C 572.12 664.28 575.52 662.35 576.83 659.86 C 579.04 655.49 579.98 650.20 583.95 646.96 Z" />
<path fill="#000000" opacity="1.00" d=" M 577.37 698.17 C 589.15 690.50 600.94 682.82 612.32 674.55 C 617.33 682.61 622.36 690.66 627.27 698.79 C 622.22 700.97 617.64 704.12 612.50 706.11 C 611.19 703.30 610.38 699.99 607.91 697.93 C 605.79 698.56 603.92 699.77 602.15 701.05 C 603.79 703.81 605.65 706.45 607.07 709.35 C 605.09 709.95 603.13 710.59 601.19 711.29 C 599.96 708.79 599.12 705.83 596.87 704.04 C 594.66 704.86 592.63 706.08 590.56 707.18 C 591.84 710.77 594.39 713.66 596.50 716.77 C 594.30 717.36 592.15 718.06 590.02 718.83 C 585.85 711.91 581.57 705.07 577.37 698.17 Z" />
<path fill="#000000" opacity="1.00" d=" M 634.33 707.52 C 638.10 711.13 642.54 714.06 645.72 718.26 C 649.52 722.74 653.44 727.85 653.54 734.01 C 653.82 739.86 649.65 745.01 644.70 747.66 C 640.63 749.77 635.86 749.13 631.64 747.87 C 630.50 752.15 630.19 756.57 630.02 760.98 C 626.67 759.50 623.27 758.13 619.84 756.86 C 620.63 752.02 622.41 747.43 623.25 742.62 C 622.64 743.01 621.41 743.78 620.79 744.17 C 619.87 744.85 619.00 745.59 618.13 746.34 C 617.19 747.11 616.27 747.92 615.37 748.73 C 612.18 745.16 608.78 741.77 605.43 738.35 C 610.73 732.04 616.76 726.41 622.50 720.51 C 626.68 716.40 630.31 711.78 634.33 707.52 M 626.48 739.84 C 629.14 741.75 633.23 744.03 636.06 741.08 C 639.46 738.79 637.82 732.81 634.15 731.98 C 631.37 734.36 628.67 736.89 626.48 739.84 Z" />
<path fill="#000000" opacity="1.00" d=" M 826.08 770.21 C 830.34 770.94 834.68 771.10 838.92 771.95 C 842.06 774.55 844.02 778.24 846.95 781.06 C 847.64 781.95 848.54 782.21 849.64 781.84 C 850.27 778.97 850.26 776.02 850.45 773.12 C 853.30 773.57 856.17 773.91 859.05 774.20 C 856.69 788.06 854.06 801.91 852.52 815.89 C 848.88 811.73 844.91 807.86 840.61 804.40 C 838.16 802.40 836.33 799.44 833.11 798.64 C 832.27 803.46 831.70 808.32 831.03 813.17 C 828.54 812.90 826.06 812.64 823.58 812.41 C 824.48 798.35 825.74 784.30 826.08 770.21 Z" />
<path fill="#000000" opacity="1.00" d=" M 871.10 774.84 C 882.32 775.96 893.52 777.33 904.76 778.31 C 903.64 783.60 903.10 788.99 902.14 794.32 C 899.38 793.64 896.55 793.06 893.71 793.44 C 892.18 801.94 890.81 810.47 889.47 819.01 C 885.42 818.68 881.40 818.06 877.35 817.95 C 877.72 809.24 878.63 800.54 878.46 791.82 C 875.77 790.82 872.89 790.95 870.09 790.97 C 870.43 785.59 870.84 780.22 871.10 774.84 Z" />
</g>
<g id="#0f8e61ff">
<path fill="#0f8e61" opacity="1.00" d=" M 723.93 126.72 C 732.84 124.73 741.99 125.65 751.03 125.41 C 756.48 125.23 761.21 128.33 766.38 129.49 C 776.01 131.69 784.88 136.37 792.87 142.10 C 804.79 150.19 817.31 158.64 824.70 171.39 C 827.67 177.17 830.86 183.30 830.59 189.99 C 830.55 194.34 830.59 198.69 830.58 203.04 C 830.63 209.01 827.70 214.41 826.49 220.15 C 824.12 230.44 817.25 238.73 810.77 246.75 C 806.18 251.83 801.12 256.44 796.37 261.37 C 791.94 266.04 786.38 269.38 781.59 273.64 C 777.42 277.51 771.89 279.25 767.18 282.30 C 762.28 285.42 757.09 288.07 752.38 291.48 C 744.77 297.11 736.43 301.65 728.26 306.40 C 722.32 309.08 717.64 313.67 712.56 317.63 C 708.37 320.96 704.67 324.86 701.05 328.79 C 700.06 329.70 699.77 330.80 700.21 332.09 C 690.52 327.56 680.86 322.95 670.87 319.14 C 658.77 314.63 646.08 312.04 633.44 309.57 C 625.98 308.17 618.56 306.37 610.96 305.90 C 607.61 305.65 604.18 305.43 601.04 304.14 C 607.56 305.63 614.38 305.94 621.02 305.18 C 630.60 302.75 638.19 295.96 647.03 291.84 C 653.89 287.50 661.07 283.74 668.40 280.26 C 676.09 275.57 684.08 271.40 691.76 266.69 C 702.53 261.36 712.15 253.98 723.10 248.98 C 734.92 242.86 747.24 237.60 758.42 230.30 C 767.80 224.81 774.63 215.78 778.85 205.90 C 779.97 201.03 779.36 195.96 779.51 191.01 C 779.94 180.27 773.00 170.50 764.24 164.89 C 756.81 160.37 748.51 157.46 740.18 155.09 C 728.84 153.13 717.43 155.40 706.30 157.51 C 699.63 159.16 693.35 162.00 687.55 165.63 C 675.95 171.49 663.31 178.02 657.31 190.23 C 652.28 198.13 648.21 206.56 644.14 214.97 C 641.77 219.87 637.82 225.33 631.65 224.67 C 631.43 217.61 630.64 210.28 633.25 203.53 C 634.99 197.15 637.89 191.22 641.47 185.69 C 644.75 178.93 650.50 173.95 655.63 168.63 C 663.19 161.18 670.59 153.57 678.19 146.16 C 682.00 142.29 687.19 140.43 691.77 137.69 C 696.41 134.93 701.56 133.24 706.49 131.10 L 707.26 130.82 C 712.81 129.39 718.15 127.15 723.93 126.72 Z" />
<path fill="#0f8e61" opacity="1.00" d=" M 884.03 247.07 C 890.78 246.38 897.12 243.39 903.97 243.43 C 913.53 242.81 922.60 246.52 932.01 247.46 C 937.70 248.05 943.11 250.16 948.82 250.67 L 949.56 250.94 C 955.73 254.77 962.60 257.28 968.71 261.21 C 973.80 264.34 978.02 268.61 982.91 272.03 C 990.48 277.48 994.23 286.32 999.11 293.96 C 1002.75 299.51 1004.99 305.84 1008.68 311.37 C 1014.06 319.53 1017.72 328.73 1020.01 338.21 C 1021.12 343.07 1022.69 347.91 1022.64 352.95 C 1022.64 365.64 1022.61 378.32 1022.67 391.01 C 1022.71 395.10 1022.35 399.18 1021.65 403.21 C 1021.21 405.35 1020.66 407.53 1019.41 409.36 C 1017.00 412.51 1016.52 416.52 1015.23 420.16 C 1010.33 431.93 1003.71 442.90 996.16 453.15 C 992.23 457.87 987.49 461.82 983.35 466.35 C 976.93 473.38 968.89 478.58 961.70 484.73 C 952.87 492.10 942.17 496.54 931.61 500.77 C 923.91 504.83 915.19 506.40 907.60 510.69 C 899.33 515.26 890.38 518.33 881.67 521.88 C 868.39 528.20 854.16 532.16 840.06 536.15 C 828.18 539.98 816.50 544.49 804.38 547.52 C 801.47 548.31 798.71 549.52 796.04 550.87 C 779.80 558.18 762.69 563.85 747.70 573.69 C 737.30 580.71 726.95 589.47 722.77 601.72 C 717.92 616.26 715.58 631.66 716.03 647.00 C 715.88 659.33 716.62 671.72 715.12 684.00 C 712.49 705.18 708.69 726.22 703.85 747.01 C 699.74 742.39 693.68 740.60 688.40 737.77 C 681.43 734.03 673.51 731.87 667.52 726.50 C 662.41 721.92 656.50 718.27 651.88 713.14 C 645.34 705.98 637.37 699.99 632.50 691.44 C 627.36 684.61 624.13 676.64 619.38 669.57 C 616.42 664.84 614.39 659.60 612.52 654.37 C 610.53 648.97 612.10 643.07 610.48 637.59 C 608.67 631.20 609.53 624.52 609.33 617.98 C 609.15 613.68 610.03 609.45 611.37 605.40 C 614.66 595.22 617.58 584.85 622.31 575.23 C 626.83 567.22 630.78 558.83 636.61 551.65 C 642.13 543.32 649.65 536.68 656.69 529.69 C 664.40 523.18 672.60 517.22 681.42 512.29 C 687.42 508.17 694.63 506.07 700.11 501.14 C 710.09 495.20 720.68 490.32 731.04 485.09 C 748.11 477.04 766.05 471.05 783.34 463.54 C 790.08 462.10 795.88 458.18 802.46 456.28 C 805.87 455.20 809.20 453.89 812.40 452.29 C 818.61 449.13 825.47 447.60 831.83 444.77 C 841.91 440.82 851.83 436.44 862.10 432.99 C 872.73 428.98 882.28 422.74 891.95 416.89 C 898.41 412.88 903.31 406.96 908.75 401.74 C 912.48 398.22 914.98 393.65 916.78 388.89 C 918.91 383.13 921.76 377.36 921.51 371.06 C 921.42 366.29 921.94 361.44 920.93 356.75 C 918.85 349.99 915.29 343.67 910.65 338.33 C 906.01 332.83 898.41 331.83 891.74 330.71 C 884.26 330.52 876.41 329.52 869.28 332.38 C 859.35 335.88 848.72 339.40 841.51 347.51 C 832.63 356.97 822.49 365.31 814.88 375.90 C 807.76 384.08 799.57 391.22 792.13 399.10 C 787.81 403.87 781.80 406.66 777.60 411.56 C 774.77 414.97 770.18 417.45 769.55 422.22 C 769.51 422.44 769.43 422.88 769.40 423.10 C 759.64 429.97 751.76 439.13 742.08 446.12 C 726.42 458.51 708.53 468.50 689.10 473.47 C 683.11 474.68 677.19 476.70 671.01 476.57 C 666.32 476.52 661.63 476.75 656.96 476.38 C 639.19 473.59 621.18 469.10 606.02 459.01 C 600.02 454.04 594.41 448.53 589.39 442.58 C 584.10 435.22 579.15 427.56 575.02 419.48 L 574.76 418.68 C 573.66 412.61 569.83 407.30 569.54 401.03 C 569.27 394.02 569.56 387.00 569.41 379.99 C 569.14 374.06 572.10 368.68 572.74 362.87 L 572.91 362.19 C 574.74 357.67 576.58 353.16 578.15 348.54 C 591.16 352.73 603.08 359.49 614.96 366.11 C 624.84 371.74 635.82 375.89 644.06 383.99 C 649.15 388.57 653.70 394.44 660.54 396.43 C 669.80 398.40 679.91 396.23 687.35 390.31 C 701.55 378.56 711.96 363.14 724.38 349.70 C 731.97 342.86 739.10 335.54 746.14 328.14 C 755.07 319.42 763.77 310.45 772.67 301.69 C 777.89 295.83 784.41 291.41 790.26 286.24 C 793.79 283.24 798.12 281.45 802.00 278.96 C 808.14 274.90 815.20 272.47 821.22 268.19 C 834.40 259.58 849.95 256.24 864.47 250.67 C 870.85 248.87 877.43 247.74 884.03 247.07 Z" />
<path fill="#0f8e61" opacity="1.00" d=" M 790.12 714.09 C 792.28 698.00 794.48 681.91 796.45 665.80 C 796.58 668.91 795.92 672.41 797.69 675.20 C 799.96 678.01 803.65 678.91 806.91 680.06 C 812.71 681.78 818.27 684.33 824.28 685.30 C 829.72 686.21 834.73 688.64 840.07 689.93 C 847.24 691.73 854.03 694.74 861.18 696.65 C 874.08 699.85 886.43 704.90 899.18 708.66 C 906.57 710.93 914.35 711.59 921.66 714.19 C 927.46 715.54 933.29 716.77 938.95 718.68 C 944.96 719.72 950.75 721.77 956.79 722.65 L 957.63 722.85 C 961.24 724.35 964.81 726.02 968.66 726.84 L 969.44 727.13 C 981.59 732.64 994.97 734.98 1006.95 740.93 C 1013.09 744.17 1019.51 746.90 1025.44 750.53 C 1036.50 757.87 1047.09 766.18 1055.44 776.58 C 1058.08 780.53 1061.29 784.03 1064.47 787.54 C 1070.18 794.82 1075.93 802.07 1081.87 809.17 C 1084.00 812.07 1086.67 815.10 1086.65 818.92 C 1086.74 824.63 1086.61 830.35 1086.68 836.07 C 1086.93 841.77 1083.96 846.81 1082.25 852.06 C 1078.23 863.55 1073.75 874.96 1067.56 885.48 C 1063.41 892.19 1058.26 898.19 1053.69 904.59 C 1049.97 909.82 1045.66 914.76 1040.29 918.36 C 1036.34 921.00 1030.41 921.85 1026.81 918.20 C 1021.14 912.94 1016.36 906.53 1013.50 899.32 C 1012.79 897.66 1011.98 896.06 1011.10 894.51 C 1010.91 894.14 1010.53 893.39 1010.34 893.02 C 1008.94 887.12 1009.74 881.03 1009.09 875.06 C 1008.40 870.31 1007.09 865.69 1006.23 860.98 C 1004.87 855.08 1005.44 848.99 1005.36 843.00 C 1005.28 833.33 1005.63 823.66 1005.58 813.99 C 1005.57 810.40 1005.08 806.75 1003.52 803.50 C 1001.57 799.07 997.79 795.90 994.47 792.53 C 987.19 784.61 976.36 781.22 965.99 779.81 L 965.27 779.62 C 957.27 776.17 948.43 777.01 940.08 775.15 C 931.69 775.09 923.56 772.61 915.17 772.78 C 909.43 772.71 903.74 771.92 898.05 771.31 C 889.02 769.97 879.88 770.77 870.79 770.41 C 864.34 768.51 857.55 768.91 850.94 768.01 C 844.70 767.17 838.33 767.68 832.19 766.13 C 823.79 764.48 815.27 763.73 806.83 762.43 C 798.60 760.68 790.21 759.91 781.91 758.65 C 782.97 754.54 783.38 750.30 784.14 746.14 C 785.96 735.42 788.77 724.88 790.12 714.09 Z" />
<path fill="#0f8e61" opacity="1.00" d=" M 649.23 769.24 C 655.63 758.11 661.74 746.81 667.90 735.54 C 676.31 739.73 685.75 744.11 690.25 752.89 C 695.42 762.78 687.05 776.29 676.00 776.43 C 671.81 776.67 667.91 774.88 664.17 773.24 C 662.56 775.41 661.05 777.64 659.64 779.93 C 655.56 777.84 651.64 775.43 647.82 772.90 C 647.46 771.52 648.76 770.43 649.23 769.24 M 667.85 768.53 C 670.98 769.91 675.27 771.00 677.54 767.58 C 680.58 764.50 678.18 759.29 674.09 758.90 C 671.17 761.45 669.24 764.96 667.85 768.53 Z" />
<path fill="#0f8e61" opacity="1.00" d=" M 785.97 766.74 C 795.27 767.66 804.56 768.66 813.84 769.74 C 813.00 775.07 812.03 780.37 811.06 785.68 C 807.86 784.90 804.64 784.20 801.34 784.11 C 800.88 786.37 800.60 788.68 800.62 791.01 C 803.75 791.34 806.90 791.64 810.04 791.93 C 809.39 793.91 808.71 795.88 808.05 797.87 C 805.44 797.21 802.79 796.47 800.08 796.70 C 798.59 798.75 798.49 801.51 798.71 803.97 C 802.08 805.21 805.77 804.78 809.30 805.08 C 808.57 807.13 807.85 809.20 807.16 811.27 C 799.18 810.42 791.22 809.42 783.22 808.80 C 784.35 794.80 785.32 780.77 785.97 766.74 Z" />
</g>
<g id="#ffffffff">
<path fill="#ffffff" opacity="1.00" d=" M 617.58 185.50 C 619.51 190.78 618.51 196.51 618.71 202.00 C 618.48 206.47 619.41 211.21 617.65 215.47 C 618.29 205.52 619.28 195.38 617.58 185.50 Z" />
<path fill="#ffffff" opacity="1.00" d=" M 701.05 328.79 C 702.25 329.61 702.29 331.76 700.89 332.43 L 700.21 332.09 C 699.77 330.80 700.06 329.70 701.05 328.79 Z" />
<path fill="#ffffff" opacity="1.00" d=" M 581.97 645.95 C 586.86 641.48 595.21 639.82 600.55 644.42 C 606.73 649.37 608.74 657.57 609.52 665.09 C 603.60 668.03 597.35 670.31 591.10 672.46 C 590.48 670.47 589.83 668.50 589.06 666.58 C 584.32 666.27 583.12 671.68 579.65 673.70 C 576.22 676.43 571.12 676.89 567.33 674.64 C 561.96 671.93 560.16 665.47 559.34 659.98 C 561.34 657.00 565.22 655.35 568.45 653.74 C 569.17 656.01 569.00 658.69 570.49 660.67 C 572.11 662.43 573.98 660.30 575.05 658.99 C 577.45 654.71 578.36 649.50 581.97 645.95 M 583.95 646.96 C 579.98 650.20 579.04 655.49 576.83 659.86 C 575.52 662.35 572.12 664.28 569.50 662.54 C 567.97 660.94 567.60 658.64 566.90 656.64 C 565.01 657.83 563.09 658.98 561.19 660.13 C 562.15 663.98 562.78 668.31 565.92 671.08 C 569.10 674.81 575.25 675.05 578.92 671.94 C 581.49 669.77 583.40 666.90 586.17 664.96 C 589.49 663.70 591.86 667.35 592.54 670.10 C 597.52 668.17 602.47 666.17 607.45 664.23 C 606.75 658.10 605.11 651.77 600.95 647.03 C 596.52 642.47 588.47 642.62 583.95 646.96 Z" />
<path fill="#ffffff" opacity="1.00" d=" M 579.58 694.53 C 590.76 687.25 601.74 679.66 612.76 672.14 C 618.49 680.27 623.36 688.98 628.63 697.41 C 630.53 699.34 627.80 700.59 626.27 701.32 C 621.47 703.58 617.02 706.61 612.04 708.45 C 610.23 705.90 609.10 702.96 607.75 700.16 C 606.66 700.51 605.57 700.86 604.49 701.21 C 606.26 704.16 608.22 706.99 609.92 709.98 C 607.00 711.26 604.02 712.43 600.99 713.40 C 598.71 711.73 598.10 708.51 596.59 706.17 C 595.31 706.80 594.05 707.46 592.80 708.15 C 594.72 711.54 597.90 714.16 599.36 717.78 C 595.97 718.73 592.68 719.99 589.28 720.93 C 584.50 713.37 579.58 705.85 575.27 698.02 C 576.32 696.42 578.05 695.58 579.58 694.53 M 577.37 698.17 C 581.57 705.07 585.85 711.91 590.02 718.83 C 592.15 718.06 594.30 717.36 596.50 716.77 C 594.39 713.66 591.84 710.77 590.56 707.18 C 592.63 706.08 594.66 704.86 596.87 704.04 C 599.12 705.83 599.96 708.79 601.19 711.29 C 603.13 710.59 605.09 709.95 607.07 709.35 C 605.65 706.45 603.79 703.81 602.15 701.05 C 603.92 699.77 605.79 698.56 607.91 697.93 C 610.38 699.99 611.19 703.30 612.50 706.11 C 617.64 704.12 622.22 700.97 627.27 698.79 C 622.36 690.66 617.33 682.61 612.32 674.55 C 600.94 682.82 589.15 690.50 577.37 698.17 Z" />
<path fill="#ffffff" opacity="1.00" d=" M 634.15 705.25 C 638.18 707.62 641.22 711.23 644.55 714.45 C 649.81 719.40 654.56 725.62 655.50 732.98 C 656.43 744.37 643.82 754.08 633.00 750.29 C 632.21 754.62 632.11 759.01 632.11 763.40 C 627.13 762.17 622.58 759.68 617.74 758.04 C 618.12 755.45 618.59 752.86 619.36 750.36 C 619.96 748.32 620.38 746.24 620.79 744.17 C 621.41 743.78 622.64 743.01 623.25 742.62 C 622.41 747.43 620.63 752.02 619.84 756.86 C 623.27 758.13 626.67 759.50 630.02 760.98 C 630.19 756.57 630.50 752.15 631.64 747.87 C 635.86 749.13 640.63 749.77 644.70 747.66 C 649.65 745.01 653.82 739.86 653.54 734.01 C 653.44 727.85 649.52 722.74 645.72 718.26 C 642.54 714.06 638.10 711.13 634.33 707.52 C 630.31 711.78 626.68 716.40 622.50 720.51 C 616.76 726.41 610.73 732.04 605.43 738.35 C 608.78 741.77 612.18 745.16 615.37 748.73 C 616.27 747.92 617.19 747.11 618.13 746.34 C 618.36 747.11 618.60 747.89 618.85 748.68 C 617.58 749.42 616.57 750.71 615.09 751.02 C 610.87 747.12 606.98 742.86 602.97 738.75 C 605.93 734.22 610.35 730.93 613.88 726.88 C 620.16 719.24 627.73 712.77 634.15 705.25 Z" />
<path fill="#ffffff" opacity="1.00" d=" M 626.48 739.84 C 628.67 736.89 631.37 734.36 634.15 731.98 C 637.82 732.81 639.46 738.79 636.06 741.08 C 633.23 744.03 629.14 741.75 626.48 739.84 M 628.88 739.22 C 630.58 740.15 632.88 741.34 634.64 739.81 C 636.71 738.82 636.30 734.61 634.03 734.35 C 632.19 735.84 630.55 737.55 628.88 739.22 Z" />
<path fill="#ffffff" opacity="1.00" d=" M 658.61 748.62 C 661.52 743.68 663.77 738.33 667.07 733.63 C 669.24 733.70 671.11 735.08 673.05 735.96 C 680.35 739.86 688.20 744.26 691.92 752.05 C 697.54 762.44 689.49 776.79 677.96 778.22 C 673.39 779.08 668.85 777.49 664.85 775.43 C 663.31 777.76 661.98 780.28 659.92 782.21 C 656.67 781.00 653.94 778.77 650.94 777.08 C 649.00 775.77 646.65 774.94 645.25 772.98 C 649.25 764.63 654.34 756.84 658.61 748.62 M 649.23 769.24 C 648.76 770.43 647.46 771.52 647.82 772.90 C 651.64 775.43 655.56 777.84 659.64 779.93 C 661.05 777.64 662.56 775.41 664.17 773.24 C 667.91 774.88 671.81 776.67 676.00 776.43 C 687.05 776.29 695.42 762.78 690.25 752.89 C 685.75 744.11 676.31 739.73 667.90 735.54 C 661.74 746.81 655.63 758.11 649.23 769.24 Z" />
<path fill="#ffffff" opacity="1.00" d=" M 667.85 768.53 C 669.24 764.96 671.17 761.45 674.09 758.90 C 678.18 759.29 680.58 764.50 677.54 767.58 C 675.27 771.00 670.98 769.91 667.85 768.53 M 674.37 760.56 C 673.10 762.96 671.63 765.24 670.03 767.43 C 672.34 768.31 675.61 768.33 676.55 765.54 C 678.07 763.49 675.80 761.73 674.37 760.56 Z" />
<path fill="#ffffff" opacity="1.00" d=" M 784.33 764.84 C 788.90 764.66 793.42 765.64 797.97 765.99 C 803.93 766.76 809.98 766.97 815.88 768.18 C 815.46 773.91 814.10 779.54 813.13 785.20 C 812.79 786.10 812.79 788.23 811.26 787.68 C 808.49 787.19 805.77 786.50 803.01 786.01 C 802.87 786.82 802.57 788.45 802.42 789.27 C 805.66 789.53 808.93 789.68 812.12 790.36 C 811.74 793.69 810.40 796.78 809.48 799.98 C 806.68 799.50 803.91 798.90 801.10 798.56 C 800.85 799.94 800.61 801.33 800.36 802.73 C 804.00 802.77 807.65 803.15 811.30 802.76 C 811.46 806.46 809.78 810.10 808.00 813.26 C 799.28 812.49 790.57 811.46 781.86 810.50 C 780.80 807.09 781.86 803.51 781.91 800.03 C 782.92 788.32 783.24 776.54 784.33 764.84 M 785.97 766.74 C 785.32 780.77 784.35 794.80 783.22 808.80 C 791.22 809.42 799.18 810.42 807.16 811.27 C 807.85 809.20 808.57 807.13 809.30 805.08 C 805.77 804.78 802.08 805.21 798.71 803.97 C 798.49 801.51 798.59 798.75 800.08 796.70 C 802.79 796.47 805.44 797.21 808.05 797.87 C 808.71 795.88 809.39 793.91 810.04 791.93 C 806.90 791.64 803.75 791.34 800.62 791.01 C 800.60 788.68 800.88 786.37 801.34 784.11 C 804.64 784.20 807.86 784.90 811.06 785.68 C 812.03 780.37 813.00 775.07 813.84 769.74 C 804.56 768.66 795.27 767.66 785.97 766.74 Z" />
<path fill="#ffffff" opacity="1.00" d=" M 850.94 768.01 C 857.55 768.91 864.34 768.51 870.79 770.41 C 878.33 772.29 886.29 769.68 893.85 771.65 C 886.85 771.15 879.79 771.01 872.80 771.69 C 870.90 772.44 873.43 773.37 874.27 773.46 C 884.88 774.35 895.48 775.41 906.09 776.53 C 906.96 779.20 905.95 781.95 905.66 784.65 C 904.88 788.62 904.92 792.83 903.15 796.56 C 900.58 795.95 898.00 795.43 895.41 795.05 C 893.92 803.53 892.59 812.03 891.18 820.52 C 885.92 821.38 880.53 820.02 875.32 819.27 C 875.62 810.51 876.52 801.77 876.51 793.00 C 873.70 793.01 870.89 793.04 868.11 792.80 C 868.29 786.63 868.72 780.46 869.24 774.31 C 870.00 773.61 871.52 772.20 872.27 771.50 C 865.65 768.07 857.92 770.20 850.94 768.01 M 871.10 774.84 C 870.84 780.22 870.43 785.59 870.09 790.97 C 872.89 790.95 875.77 790.82 878.46 791.82 C 878.63 800.54 877.72 809.24 877.35 817.95 C 881.40 818.06 885.42 818.68 889.47 819.01 C 890.81 810.47 892.18 801.94 893.71 793.44 C 896.55 793.06 899.38 793.64 902.14 794.32 C 903.10 788.99 903.64 783.60 904.76 778.31 C 893.52 777.33 882.32 775.96 871.10 774.84 Z" />
<path fill="#ffffff" opacity="1.00" d=" M 823.80 778.05 C 824.21 774.84 823.45 771.34 824.97 768.39 C 829.53 768.44 834.05 769.29 838.58 769.80 C 840.61 769.83 841.66 771.77 842.80 773.17 C 844.33 775.34 846.19 777.25 848.04 779.16 C 848.24 776.62 848.41 774.08 848.67 771.55 C 852.91 771.06 857.18 771.95 861.32 772.79 C 858.62 787.49 856.29 802.25 854.14 817.03 C 854.17 819.23 851.61 818.04 850.95 816.98 C 845.64 811.54 840.20 806.23 834.46 801.26 C 834.07 805.73 833.68 810.26 832.58 814.61 L 831.96 815.24 C 828.53 815.05 825.14 814.49 821.75 814.05 C 821.88 802.03 823.41 790.06 823.80 778.05 M 826.08 770.21 C 825.74 784.30 824.48 798.35 823.58 812.41 C 826.06 812.64 828.54 812.90 831.03 813.17 C 831.70 808.32 832.27 803.46 833.11 798.64 C 836.33 799.44 838.16 802.40 840.61 804.40 C 844.91 807.86 848.88 811.73 852.52 815.89 C 854.06 801.91 856.69 788.06 859.05 774.20 C 856.17 773.91 853.30 773.57 850.45 773.12 C 850.26 776.02 850.27 778.97 849.64 781.84 C 848.54 782.21 847.64 781.95 846.95 781.06 C 844.02 778.24 842.06 774.55 838.92 771.95 C 834.68 771.10 830.34 770.94 826.08 770.21 Z" />
</g>
</svg>
